<svg width="22" height="22" viewBox="0 0 22 22" fill="none" xmlns="http://www.w3.org/2000/svg">
<path fill-rule="evenodd" clip-rule="evenodd" d="M12.9812 11.8132L3.81321 20.996C3.49071 21.319 2.97384 21.3387 2.62781 21.041C2.24816 20.7144 1.95396 20.4467 1.74522 20.2379C1.5419 20.0345 1.2901 19.7573 0.989819 19.4063L0.989907 19.4063C0.69385 19.0602 0.713665 18.5446 1.0354 18.2223L10.2248 9.01797L7.71173 6.46954C6.95056 5.69766 6.95895 4.45458 7.73047 3.69304C7.97769 3.44902 8.28521 3.27501 8.62163 3.18877L19.1563 0.488417C20.2062 0.2193 21.2753 0.852646 21.5443 1.90303C21.6262 2.22265 21.6262 2.55774 21.5444 2.87736L18.8248 13.5028C18.5559 14.5532 17.4868 15.1867 16.4369 14.9177C16.0917 14.8293 15.777 14.6485 15.5268 14.3946L12.9812 11.8132Z" fill="#323653"/>
</svg>
