<svg width="78" height="30" viewBox="0 0 78 30" fill="none" xmlns="http://www.w3.org/2000/svg">
<path d="M8.27496 16.136L3.88296 26H0.678955L5.50296 15.452C4.37496 14.876 3.46296 14.036 2.76696 12.932C2.07096 11.804 1.72296 10.28 1.72296 8.36001C1.72296 7.01601 1.91496 5.84001 2.29896 4.83201C2.70696 3.80001 3.24696 2.94801 3.91896 2.27601C4.61496 1.60401 5.41896 1.10001 6.33096 0.76401C7.24296 0.42801 8.20295 0.26001 9.21095 0.26001H13.351V26H10.579V16.136H8.27496ZM10.579 2.60001H9.10295C8.55095 2.60001 8.01096 2.70801 7.48296 2.92401C6.95496 3.11601 6.48696 3.44001 6.07896 3.89601C5.67096 4.32801 5.33496 4.91601 5.07096 5.66001C4.83096 6.38001 4.71096 7.28001 4.71096 8.36001C4.71096 9.39201 4.81895 10.256 5.03496 10.952C5.27496 11.648 5.58696 12.212 5.97096 12.644C6.37896 13.076 6.84696 13.388 7.37496 13.58C7.92696 13.748 8.50296 13.832 9.10295 13.832H10.579V2.60001Z" fill="white"/>
<path d="M41.1385 29.564H38.6185V26H30.8425V29.564H28.3225V23.696H29.4385C29.8465 22.736 30.1705 21.68 30.4105 20.528C30.6505 19.352 30.8305 18.152 30.9505 16.928C31.0945 15.68 31.1785 14.42 31.2025 13.148C31.2505 11.852 31.2745 10.604 31.2745 9.40401V7.85601H39.6985V23.696H41.1385V29.564ZM53.3425 24.776C52.7665 25.232 52.1065 25.592 51.3625 25.856C50.6185 26.12 49.7905 26.252 48.8785 26.252C47.0065 26.252 45.5305 25.532 44.4505 24.092C43.3705 22.628 42.8305 20.492 42.8305 17.684C42.8305 16.22 42.9265 14.876 43.1185 13.652C43.3345 12.428 43.6585 11.372 44.0905 10.484C44.5465 9.57201 45.1225 8.86401 45.8185 8.36001C46.5145 7.85601 47.3425 7.60401 48.3025 7.60401C49.0465 7.60401 49.7305 7.76001 50.3545 8.07201C50.9785 8.36001 51.5065 8.84001 51.9385 9.51201C52.3705 10.184 52.7065 11.06 52.9465 12.14C53.1865 13.196 53.3065 14.492 53.3065 16.028V17.576H45.7465C45.7465 19.64 46.0225 21.2 46.5745 22.256C47.1505 23.312 48.0025 23.84 49.1305 23.84C49.9225 23.84 50.6185 23.708 51.2185 23.444C51.8425 23.156 52.3345 22.88 52.6945 22.616L53.3425 24.776ZM26.7025 7.85601V26H23.9305V17.864H19.7545V26H16.9465V7.85601H19.7545V15.56H23.9305V7.85601H26.7025ZM58.9945 16.964V26H56.1865V7.85601H58.9945V16.244L63.3505 7.85601H66.1945L61.6945 16.388L66.8425 26H63.7825L58.9945 16.964ZM73.4305 26.252C71.4865 26.252 69.9625 25.484 68.8585 23.948C67.7545 22.388 67.2025 20.048 67.2025 16.928C67.2025 15.512 67.3345 14.228 67.5985 13.076C67.8865 11.924 68.2945 10.952 68.8225 10.16C69.3745 9.34401 70.0465 8.72001 70.8385 8.28801C71.6545 7.83201 72.5905 7.60401 73.6465 7.60401C74.4625 7.60401 75.1225 7.70001 75.6265 7.89201C76.1305 8.06001 76.5865 8.27601 76.9945 8.54001L76.5985 11.204C76.2145 10.868 75.7585 10.58 75.2305 10.34C74.7265 10.076 74.1865 9.94401 73.6105 9.94401C72.6025 9.94401 71.7745 10.508 71.1265 11.636C70.4785 12.764 70.1545 14.48 70.1545 16.784C70.1545 19.064 70.4185 20.828 70.9465 22.076C71.4985 23.3 72.3505 23.912 73.5025 23.912C74.1985 23.912 74.7985 23.804 75.3025 23.588C75.8065 23.348 76.2265 23.084 76.5625 22.796L77.2105 24.884C76.7305 25.292 76.1905 25.628 75.5905 25.892C74.9905 26.132 74.2705 26.252 73.4305 26.252ZM36.9265 10.124H33.7945V10.448C33.7945 11.408 33.7705 12.464 33.7225 13.616C33.6985 14.744 33.6265 15.896 33.5065 17.072C33.3865 18.248 33.2185 19.412 33.0025 20.564C32.7865 21.692 32.4865 22.736 32.1025 23.696H36.9265V10.124ZM48.3025 9.90801C47.4385 9.90801 46.8265 10.4 46.4665 11.384C46.1065 12.344 45.8785 13.64 45.7825 15.272H50.4265C50.4265 14.504 50.3905 13.796 50.3185 13.148C50.2465 12.476 50.1265 11.9 49.9585 11.42C49.8145 10.94 49.5985 10.568 49.3105 10.304C49.0465 10.04 48.7105 9.90801 48.3025 9.90801Z" fill="white"/>
</svg>
