<svg width="60" height="23" viewBox="0 0 60 23" fill="none" xmlns="http://www.w3.org/2000/svg">
<path d="M6.10277 12.528L2.68677 20.2H0.194766L3.94677 11.996C3.06943 11.548 2.3601 10.8946 1.81877 10.036C1.27743 9.15862 1.00677 7.97328 1.00677 6.47995C1.00677 5.43462 1.1561 4.51995 1.45477 3.73595C1.7721 2.93328 2.1921 2.27062 2.71477 1.74795C3.2561 1.22528 3.88143 0.833284 4.59077 0.57195C5.3001 0.310617 6.04677 0.17995 6.83077 0.17995H10.0508V20.2H7.89477V12.528H6.10277ZM7.89477 1.99995H6.74677C6.31743 1.99995 5.89743 2.08395 5.48677 2.25195C5.0761 2.40128 4.7121 2.65328 4.39477 3.00795C4.07743 3.34395 3.8161 3.80128 3.61077 4.37995C3.4241 4.93995 3.33077 5.63995 3.33077 6.47995C3.33077 7.28262 3.41477 7.95462 3.58277 8.49595C3.76943 9.03728 4.0121 9.47595 4.31077 9.81195C4.6281 10.148 4.9921 10.3906 5.40277 10.54C5.8321 10.6706 6.2801 10.736 6.74677 10.736H7.89477V1.99995ZM31.6633 22.972H29.7033V20.2H23.6553V22.972H21.6953V18.408H22.5633C22.8806 17.6613 23.1326 16.84 23.3193 15.944C23.5059 15.0293 23.6459 14.096 23.7393 13.144C23.8513 12.1733 23.9166 11.1933 23.9353 10.204C23.9726 9.19595 23.9913 8.22528 23.9913 7.29195V6.08795H30.5433V18.408H31.6633V22.972ZM41.1553 19.248C40.7073 19.6026 40.1939 19.8826 39.6153 20.088C39.0366 20.2933 38.3926 20.396 37.6833 20.396C36.2273 20.396 35.0793 19.836 34.2393 18.716C33.3993 17.5773 32.9793 15.916 32.9793 13.732C32.9793 12.5933 33.0539 11.548 33.2033 10.596C33.3713 9.64395 33.6233 8.82262 33.9593 8.13195C34.3139 7.42262 34.7619 6.87195 35.3033 6.47995C35.8446 6.08795 36.4886 5.89195 37.2353 5.89195C37.8139 5.89195 38.3459 6.01328 38.8313 6.25595C39.3166 6.47995 39.7273 6.85328 40.0633 7.37595C40.3993 7.89862 40.6606 8.57995 40.8473 9.41995C41.0339 10.2413 41.1273 11.2493 41.1273 12.444V13.648H35.2473C35.2473 15.2533 35.4619 16.4666 35.8913 17.288C36.3393 18.1093 37.0019 18.52 37.8793 18.52C38.4953 18.52 39.0366 18.4173 39.5033 18.212C39.9886 17.988 40.3713 17.7733 40.6513 17.568L41.1553 19.248ZM20.4353 6.08795V20.2H18.2793V13.872H15.0313V20.2H12.8473V6.08795H15.0313V12.08H18.2793V6.08795H20.4353ZM45.5513 13.172V20.2H43.3673V6.08795H45.5513V12.612L48.9393 6.08795H51.1513L47.6513 12.724L51.6553 20.2H49.2753L45.5513 13.172ZM56.7793 20.396C55.2673 20.396 54.0819 19.7986 53.2233 18.604C52.3646 17.3906 51.9353 15.5706 51.9353 13.144C51.9353 12.0426 52.0379 11.044 52.2433 10.148C52.4673 9.25195 52.7846 8.49595 53.1953 7.87995C53.6246 7.24528 54.1473 6.75995 54.7633 6.42395C55.3979 6.06928 56.1259 5.89195 56.9473 5.89195C57.5819 5.89195 58.0953 5.96662 58.4873 6.11595C58.8793 6.24662 59.2339 6.41462 59.5513 6.61995L59.2433 8.69195C58.9446 8.43062 58.5899 8.20662 58.1793 8.01995C57.7873 7.81462 57.3673 7.71195 56.9193 7.71195C56.1353 7.71195 55.4913 8.15062 54.9873 9.02795C54.4833 9.90528 54.2313 11.24 54.2313 13.032C54.2313 14.8053 54.4366 16.1773 54.8473 17.148C55.2766 18.1 55.9393 18.576 56.8353 18.576C57.3766 18.576 57.8433 18.492 58.2353 18.324C58.6273 18.1373 58.9539 17.932 59.2153 17.708L59.7193 19.332C59.3459 19.6493 58.9259 19.9106 58.4593 20.116C57.9926 20.3026 57.4326 20.396 56.7793 20.396ZM28.3873 7.85195H25.9513V8.10395C25.9513 8.85062 25.9326 9.67195 25.8953 10.568C25.8766 11.4453 25.8206 12.3413 25.7273 13.256C25.6339 14.1706 25.5033 15.076 25.3353 15.972C25.1673 16.8493 24.9339 17.6613 24.6353 18.408H28.3873V7.85195ZM37.2353 7.68395C36.5633 7.68395 36.0873 8.06662 35.8073 8.83195C35.5273 9.57862 35.3499 10.5866 35.2753 11.856H38.8873C38.8873 11.2586 38.8593 10.708 38.8033 10.204C38.7473 9.68128 38.6539 9.23328 38.5233 8.85995C38.4113 8.48662 38.2433 8.19728 38.0193 7.99195C37.8139 7.78662 37.5526 7.68395 37.2353 7.68395Z" fill="white"/>
</svg>
